<svg width="22" height="39" viewBox="0 0 22 39" fill="none" xmlns="http://www.w3.org/2000/svg">
<path d="M0.841278 37.2849C0.302608 36.7474 0 36.0185 0 35.2585C0 34.4985 0.302608 33.7696 0.841278 33.2322L15.0644 19.0448L0.841278 4.85746C0.317874 4.3169 0.0282557 3.59291 0.0348024 2.84142C0.0413491 2.08993 0.343537 1.37106 0.876279 0.839661C1.40902 0.308254 2.12969 0.00683212 2.88307 0.000301361C3.63646 -0.0062294 4.36227 0.282661 4.90419 0.804749L21.1587 17.0184C21.6974 17.5559 22 18.2848 22 19.0448C22 19.8048 21.6974 20.5337 21.1587 21.0712L4.90419 37.2849C4.36536 37.8222 3.63464 38.124 2.87273 38.124C2.11083 38.124 1.38011 37.8222 0.841278 37.2849Z" fill="#F6C389"/>
</svg>
