<svg width="22" height="39" viewBox="0 0 22 39" fill="none" xmlns="http://www.w3.org/2000/svg">
<path d="M21.1587 1.10088C21.6974 1.63836 22 2.36724 22 3.12724C22 3.88723 21.6974 4.61611 21.1587 5.15359L6.93565 19.3409L21.1587 33.5283C21.6821 34.0688 21.9717 34.7928 21.9652 35.5443C21.9587 36.2958 21.6565 37.0147 21.1237 37.5461C20.591 38.0775 19.8703 38.3789 19.1169 38.3854C18.3635 38.392 17.6377 38.1031 17.0958 37.581L0.841278 21.3673C0.302608 20.8298 0 20.1009 0 19.3409C0 18.5809 0.302608 17.8521 0.841278 17.3146L17.0958 1.10088C17.6346 0.563566 18.3654 0.261719 19.1273 0.261719C19.8892 0.261719 20.6199 0.563566 21.1587 1.10088Z" fill="#F6C389"/>
</svg>
