<svg width="17" height="10" viewBox="0 0 17 10" fill="none" xmlns="http://www.w3.org/2000/svg">
<path d="M16.6258 9.6176C16.3861 9.86245 16.0611 10 15.7222 10C15.3833 10 15.0583 9.86245 14.8186 9.6176L8.49228 3.15257L2.16593 9.6176C1.92489 9.85551 1.60205 9.98716 1.26695 9.98418C0.931845 9.9812 0.611292 9.84385 0.374332 9.60169C0.137371 9.35954 0.00296021 9.03196 4.95911e-05 8.68951C-0.00286293 8.34706 0.125957 8.01715 0.358765 7.77082L7.5887 0.382399C7.82837 0.137548 8.15339 0 8.49228 0C8.83118 0 9.1562 0.137548 9.39587 0.382399L16.6258 7.77082C16.8654 8.01575 17 8.34789 17 8.69421C17 9.04053 16.8654 9.37268 16.6258 9.6176Z" fill="white"/>
</svg>
