<svg width="186" height="73" viewBox="0 0 186 73" fill="none" xmlns="http://www.w3.org/2000/svg">
<path d="M33.7768 72.7165C31.8249 72.7165 29.9481 72.1981 28.2214 71.2353L6.29964 58.7186C2.84622 56.793 0.744141 53.1639 0.744141 49.2386V24.2792C0.744141 20.3539 2.84622 16.7247 6.29964 14.7991L28.2214 2.28236C31.6748 0.356725 35.8789 0.356725 39.3323 2.28236L61.254 14.7991C64.7074 16.7247 66.8095 20.3539 66.8095 24.2792V49.2386C66.8095 53.1639 64.7074 56.793 61.254 58.7186L39.3323 71.2353C37.6056 72.1981 35.7288 72.7165 33.7768 72.7165ZM33.7768 2.06019C32.4256 2.06019 31.0741 2.43049 29.7979 3.09707L6.22456 16.5766C3.82219 17.9838 2.24563 20.5759 2.24563 23.3163V50.2013C2.24563 53.0157 3.74711 55.5339 6.22456 56.9411L29.7979 70.3465C32.2003 71.7537 35.2783 71.7537 37.6806 70.3465L61.254 56.9411C63.6564 55.5339 65.2329 52.9416 65.2329 50.2013V23.3163C65.2329 20.5019 63.7315 17.9838 61.254 16.5766L37.7557 3.09707C36.5546 2.43049 35.1281 2.06019 33.7768 2.06019Z" fill="#FEC882"/>
<path d="M96.8579 33.2945H92.7208L85.8016 22.8907V33.2945H81.6645V16.3464H85.8016L92.7208 26.846V16.3464H96.8579V33.2945Z" fill="#FFFAF3"/>
<path d="M104.845 19.751C105.877 19.751 106.764 19.9827 107.506 20.4461C108.248 20.9095 108.796 21.5409 109.151 22.3399V19.9188H113.264V33.2951H109.151V30.8739C108.796 31.673 108.248 32.3042 107.506 32.7677C106.764 33.2311 105.877 33.4629 104.845 33.4629C103.732 33.4629 102.732 33.1912 101.845 32.6477C100.974 32.0884 100.28 31.2894 99.7641 30.2507C99.2641 29.2118 99.014 27.9972 99.014 26.6069C99.014 25.2005 99.2641 23.9859 99.7641 22.9632C100.28 21.9243 100.974 21.1334 101.845 20.5899C102.732 20.0306 103.732 19.751 104.845 19.751ZM106.175 23.3467C105.288 23.3467 104.571 23.6343 104.022 24.2098C103.49 24.7851 103.224 25.5841 103.224 26.6069C103.224 27.6297 103.49 28.4288 104.022 29.0041C104.571 29.5794 105.288 29.8671 106.175 29.8671C107.046 29.8671 107.756 29.5715 108.304 28.9802C108.869 28.3889 109.151 27.5977 109.151 26.6069C109.151 25.6001 108.869 24.809 108.304 24.2337C107.756 23.6424 107.046 23.3467 106.175 23.3467Z" fill="#FFFAF3"/>
<path d="M123.758 29.771V33.2949H121.895C120.314 33.2949 119.08 32.9113 118.193 32.1443C117.322 31.3611 116.887 30.0746 116.887 28.2848V23.3706H115.072V19.9186H116.887V16.6345H121.024V19.9186H123.733V23.3706H121.024V28.3567C121.024 28.8841 121.128 29.2517 121.338 29.4594C121.564 29.6671 121.935 29.771 122.451 29.771H123.758Z" fill="#FFFAF3"/>
<path d="M125.696 16.1548C125.696 15.5315 125.922 15.0201 126.373 14.6207C126.825 14.2051 127.422 13.9973 128.164 13.9973C128.905 13.9973 129.502 14.2051 129.954 14.6207C130.405 15.0201 130.631 15.5315 130.631 16.1548C130.631 16.7621 130.405 17.2734 129.954 17.689C129.502 18.0886 128.905 18.2882 128.164 18.2882C127.422 18.2882 126.825 18.0886 126.373 17.689C125.922 17.2734 125.696 16.7621 125.696 16.1548ZM130.22 19.9184V33.2947H126.083V19.9184H130.22Z" fill="#FFFAF3"/>
<path d="M139.391 19.751C140.729 19.751 141.923 20.0306 142.971 20.5899C144.036 21.1334 144.866 21.9243 145.463 22.9632C146.076 24.0019 146.383 25.2165 146.383 26.6069C146.383 27.9972 146.076 29.2118 145.463 30.2507C144.866 31.2894 144.036 32.0884 142.971 32.6477C141.923 33.1912 140.729 33.4629 139.391 33.4629C138.052 33.4629 136.85 33.1912 135.786 32.6477C134.721 32.0884 133.883 31.2894 133.27 30.2507C132.673 29.2118 132.374 27.9972 132.374 26.6069C132.374 25.2165 132.673 24.0019 133.27 22.9632C133.883 21.9243 134.721 21.1334 135.786 20.5899C136.85 20.0306 138.052 19.751 139.391 19.751ZM139.391 23.2988C138.6 23.2988 137.931 23.5865 137.383 24.1618C136.85 24.7211 136.584 25.5362 136.584 26.6069C136.584 27.6777 136.85 28.4927 137.383 29.052C137.931 29.6114 138.6 29.891 139.391 29.891C140.181 29.891 140.842 29.6114 141.374 29.052C141.907 28.4927 142.173 27.6777 142.173 26.6069C142.173 25.5362 141.907 24.7211 141.374 24.1618C140.842 23.5865 140.181 23.2988 139.391 23.2988Z" fill="#FFFAF3"/>
<path d="M157.092 19.7744C158.64 19.7744 159.867 20.2859 160.77 21.3087C161.69 22.3314 162.149 23.7378 162.149 25.5276V33.2946H158.012V26.0072C158.012 25.1122 157.77 24.417 157.286 23.9215C156.818 23.4101 156.19 23.1545 155.399 23.1545C154.561 23.1545 153.892 23.4182 153.391 23.9456C152.907 24.4729 152.665 25.2241 152.665 26.1989V33.2946H148.528V19.9183H152.665V22.3634C153.052 21.5643 153.624 20.9331 154.383 20.4696C155.157 20.0062 156.061 19.7744 157.092 19.7744Z" fill="#FFFAF3"/>
<path d="M170.006 19.751C171.039 19.751 171.925 19.9827 172.668 20.4461C173.409 20.9095 173.958 21.5409 174.313 22.3399V19.9188H178.425V33.2951H174.313V30.8739C173.958 31.673 173.409 32.3042 172.668 32.7677C171.925 33.2311 171.039 33.4629 170.006 33.4629C168.893 33.4629 167.893 33.1912 167.006 32.6477C166.135 32.0884 165.442 31.2894 164.925 30.2507C164.425 29.2118 164.175 27.9972 164.175 26.6069C164.175 25.2005 164.425 23.9859 164.925 22.9632C165.442 21.9243 166.135 21.1334 167.006 20.5899C167.893 20.0306 168.893 19.751 170.006 19.751ZM171.337 23.3467C170.449 23.3467 169.731 23.6343 169.184 24.2098C168.651 24.7851 168.386 25.5841 168.386 26.6069C168.386 27.6297 168.651 28.4288 169.184 29.0041C169.731 29.5794 170.449 29.8671 171.337 29.8671C172.207 29.8671 172.917 29.5715 173.466 28.9802C174.03 28.3889 174.313 27.5977 174.313 26.6069C174.313 25.6001 174.03 24.809 173.466 24.2337C172.917 23.6424 172.207 23.3467 171.337 23.3467Z" fill="#FFFAF3"/>
<path d="M185.411 15.5557V33.2948H181.274V15.5557H185.411Z" fill="#FFFAF3"/>
<path d="M87.8347 43.8904C89.5605 43.8904 90.9878 44.3459 92.117 45.2568C93.2459 46.1518 93.9475 47.3743 94.2218 48.9245H91.2944C91.1331 48.0935 90.7379 47.4463 90.1089 46.9828C89.496 46.5034 88.7218 46.2637 87.7863 46.2637C86.7217 46.2637 85.8346 46.6392 85.1249 47.3903C84.4154 48.1255 84.0605 49.2122 84.0605 50.6505C84.0605 52.0888 84.4154 53.1835 85.1249 53.9346C85.8346 54.6858 86.7217 55.0613 87.7863 55.0613C88.7218 55.0613 89.496 54.8216 90.1089 54.3421C90.7379 53.8627 91.1331 53.2074 91.2944 52.3764H94.2218C93.9475 53.9267 93.2459 55.1572 92.117 56.0681C90.9878 56.979 89.5605 57.4345 87.8347 57.4345C86.5443 57.4345 85.3992 57.1628 84.3992 56.6195C83.4153 56.0761 82.6411 55.2931 82.0766 54.2702C81.512 53.2475 81.2298 52.0408 81.2298 50.6505C81.2298 49.2761 81.512 48.0775 82.0766 47.0546C82.6411 46.0319 83.4153 45.2489 84.3992 44.7054C85.3992 44.1621 86.5443 43.8904 87.8347 43.8904Z" fill="#FFFAF3"/>
<path d="M102.232 43.8904C103.442 43.8904 104.474 44.1861 105.329 44.7774C106.184 45.3687 106.789 46.1518 107.144 47.1267V44.0582H109.902V57.2667H107.144V54.1983C106.789 55.1731 106.184 55.9563 105.329 56.5476C104.474 57.1389 103.442 57.4345 102.232 57.4345C101.071 57.4345 100.031 57.1628 99.1115 56.6195C98.2083 56.0761 97.4986 55.2931 96.9825 54.2702C96.4663 53.2475 96.2082 52.0408 96.2082 50.6505C96.2082 49.2761 96.4663 48.0775 96.9825 47.0546C97.4986 46.0319 98.2083 45.2489 99.1115 44.7054C100.031 44.1621 101.071 43.8904 102.232 43.8904ZM103.079 46.2876C101.853 46.2876 100.869 46.6791 100.128 47.4621C99.4018 48.2293 99.0389 49.2921 99.0389 50.6505C99.0389 52.0088 99.4018 53.0797 100.128 53.8627C100.869 54.6297 101.853 55.0133 103.079 55.0133C103.853 55.0133 104.547 54.8376 105.16 54.486C105.773 54.1184 106.257 53.607 106.611 52.9518C106.966 52.2965 107.144 51.5294 107.144 50.6505C107.144 49.7875 106.966 49.0284 106.611 48.3731C106.257 47.702 105.773 47.1905 105.16 46.839C104.547 46.4714 103.853 46.2876 103.079 46.2876Z" fill="#FFFAF3"/>
<path d="M117.592 43.8904C119.156 43.8904 120.406 44.29 121.342 45.089C122.293 45.872 122.874 46.9269 123.084 48.2533H120.471C120.358 47.5342 120.043 46.9589 119.527 46.5273C119.027 46.0799 118.358 45.8562 117.519 45.8562C116.826 45.8562 116.285 46.0239 115.898 46.3595C115.527 46.6791 115.342 47.1186 115.342 47.6779C115.342 48.0935 115.479 48.4291 115.753 48.6848C116.027 48.9405 116.366 49.1403 116.769 49.284C117.188 49.428 117.777 49.5877 118.535 49.7636C119.535 49.9873 120.342 50.2191 120.955 50.4587C121.584 50.6984 122.116 51.082 122.551 51.6094C123.003 52.1208 123.229 52.824 123.229 53.7188C123.229 54.8216 122.801 55.7166 121.946 56.4037C121.108 57.0909 119.971 57.4345 118.535 57.4345C116.874 57.4345 115.527 57.0509 114.495 56.2838C113.479 55.5168 112.866 54.4459 112.656 53.0716H115.342C115.422 53.7908 115.745 54.3741 116.309 54.8216C116.874 55.269 117.616 55.4927 118.535 55.4927C119.196 55.4927 119.713 55.3249 120.084 54.9894C120.471 54.6378 120.664 54.1983 120.664 53.671C120.664 53.2074 120.519 52.8398 120.229 52.5682C119.938 52.2965 119.576 52.0888 119.14 51.945C118.705 51.7851 118.108 51.6254 117.35 51.4655C116.382 51.2418 115.592 51.0181 114.979 50.7944C114.382 50.5705 113.866 50.211 113.43 49.7156C113.011 49.2041 112.801 48.517 112.801 47.654C112.801 46.5354 113.221 45.6323 114.059 44.9452C114.914 44.242 116.092 43.8904 117.592 43.8904Z" fill="#FFFAF3"/>
<path d="M125.608 40.2223C125.608 39.7589 125.769 39.3753 126.091 39.0717C126.414 38.768 126.841 38.6162 127.374 38.6162C127.906 38.6162 128.333 38.768 128.656 39.0717C128.995 39.3753 129.164 39.7589 129.164 40.2223C129.164 40.6859 128.995 41.0614 128.656 41.3491C128.333 41.6367 127.906 41.7806 127.374 41.7806C126.841 41.7806 126.414 41.6367 126.091 41.3491C125.769 41.0614 125.608 40.6859 125.608 40.2223ZM128.753 44.0578V57.2663H125.995V44.0578H128.753Z" fill="#FFFAF3"/>
<path d="M139.541 43.8423C141.09 43.8423 142.332 44.3378 143.267 45.3286C144.203 46.3194 144.67 47.7338 144.67 49.5716V57.2665H141.912V49.8592C141.912 48.6766 141.606 47.7657 140.993 47.1265C140.38 46.4713 139.541 46.1437 138.477 46.1437C137.38 46.1437 136.501 46.4952 135.84 47.1984C135.179 47.8857 134.848 48.9005 134.848 50.2428V57.2665H132.09V44.0581H134.848V46.9587C135.203 45.9678 135.8 45.2008 136.638 44.6574C137.477 44.1141 138.445 43.8423 139.541 43.8423Z" fill="#FFFAF3"/>
<path d="M153.993 43.8904C155.283 43.8904 156.443 44.1621 157.477 44.7054C158.508 45.2489 159.315 46.0319 159.895 47.0546C160.476 48.0775 160.767 49.2761 160.767 50.6505C160.767 52.0408 160.476 53.2475 159.895 54.2702C159.315 55.2931 158.508 56.0761 157.477 56.6195C156.443 57.1628 155.283 57.4345 153.993 57.4345C152.703 57.4345 151.54 57.1628 150.509 56.6195C149.493 56.0761 148.686 55.2931 148.089 54.2702C147.509 53.2315 147.218 52.0248 147.218 50.6505C147.218 49.2761 147.509 48.0775 148.089 47.0546C148.686 46.0319 149.493 45.2489 150.509 44.7054C151.54 44.1621 152.703 43.8904 153.993 43.8904ZM153.993 46.2637C153.282 46.2637 152.629 46.4234 152.034 46.7431C151.436 47.0627 150.952 47.5581 150.581 48.2293C150.227 48.8846 150.049 49.6916 150.049 50.6505C150.049 51.6254 150.227 52.4404 150.581 53.0957C150.952 53.7508 151.436 54.2382 152.034 54.5579C152.629 54.8775 153.282 55.0373 153.993 55.0373C154.701 55.0373 155.356 54.8775 155.952 54.5579C156.549 54.2382 157.025 53.7508 157.38 53.0957C157.751 52.4404 157.936 51.6254 157.936 50.6505C157.936 49.6916 157.751 48.8846 157.38 48.2293C157.025 47.5581 156.549 47.0627 155.952 46.7431C155.356 46.4234 154.701 46.2637 153.993 46.2637Z" fill="#FFFAF3"/>
<path fill-rule="evenodd" clip-rule="evenodd" d="M38.6705 9.14746L56.463 19.2941C59.1658 20.8495 60.8925 23.8119 60.8925 26.9967V47.1419C60.8925 50.3267 59.1658 53.2891 56.3881 54.8445L38.6705 64.9912C37.244 65.8059 35.7426 66.1762 34.1661 66.1762C32.5895 66.1762 31.0129 65.8059 29.6615 64.9912L11.944 54.9185C9.16629 53.2891 7.43958 50.4008 7.43958 47.216V26.9967C7.43958 23.8119 9.16629 20.8495 11.944 19.2941L29.6615 9.14746C32.4394 7.59212 35.8928 7.59212 38.6705 9.14746ZM39.8756 50.7627H46.7034V22.7918H39.8756V40.1203L28.4559 22.7918H21.6281V50.7627H28.4559V33.5925L39.8756 50.7627Z" fill="#FEC882"/>
<path d="M33.7768 72.0176C31.8249 72.0176 29.9481 71.4992 28.2214 70.5363L6.29964 58.0196C2.84622 56.094 0.744141 52.4649 0.744141 48.5396V23.5802C0.744141 19.6549 2.84622 16.0258 6.29964 14.1001L28.2214 1.58339C31.6748 -0.342249 35.8789 -0.342249 39.3323 1.58339L61.254 14.1001C64.7074 16.0258 66.8095 19.6549 66.8095 23.5802V48.5396C66.8095 52.4649 64.7074 56.094 61.254 58.0196L39.3323 70.5363C37.6056 71.4992 35.7288 72.0176 33.7768 72.0176ZM33.7768 1.36121C32.4256 1.36121 31.0741 1.73152 29.7979 2.39809L6.22456 15.8776C3.82219 17.2848 2.24563 19.877 2.24563 22.6173V49.5023C2.24563 52.3167 3.74711 54.835 6.22456 56.2422L29.7979 69.6475C32.2003 71.0547 35.2783 71.0547 37.6806 69.6475L61.254 56.2422C63.6564 54.835 65.2329 52.2426 65.2329 49.5023V22.6173C65.2329 19.8029 63.7315 17.2848 61.254 15.8776L37.7557 2.39809C36.5546 1.73152 35.1281 1.36121 33.7768 1.36121Z" fill="#FEC882"/>
<path d="M96.8579 32.5958H92.7208L85.8016 22.192V32.5958H81.6645V15.6477H85.8016L92.7208 26.1472V15.6477H96.8579V32.5958Z" fill="#FFFAF3"/>
<path d="M104.845 19.0515C105.877 19.0515 106.764 19.2833 107.506 19.7467C108.248 20.2101 108.796 20.8414 109.151 21.6405V19.2193H113.264V32.5956H109.151V30.1745C108.796 30.9735 108.248 31.6047 107.506 32.0682C106.764 32.5316 105.877 32.7634 104.845 32.7634C103.732 32.7634 102.732 32.4917 101.845 31.9483C100.974 31.3889 100.28 30.5899 99.7641 29.5512C99.2641 28.5123 99.014 27.2977 99.014 25.9074C99.014 24.5011 99.2641 23.2865 99.7641 22.2637C100.28 21.2249 100.974 20.4339 101.845 19.8904C102.732 19.3311 103.732 19.0515 104.845 19.0515ZM106.175 22.6472C105.288 22.6472 104.571 22.9349 104.022 23.5103C103.49 24.0856 103.224 24.8847 103.224 25.9074C103.224 26.9303 103.49 27.7293 104.022 28.3046C104.571 28.8799 105.288 29.1676 106.175 29.1676C107.046 29.1676 107.756 28.872 108.304 28.2807C108.869 27.6894 109.151 26.8983 109.151 25.9074C109.151 24.9007 108.869 24.1096 108.304 23.5342C107.756 22.9429 107.046 22.6472 106.175 22.6472Z" fill="#FFFAF3"/>
<path d="M123.758 29.072V32.5959H121.895C120.314 32.5959 119.08 32.2123 118.193 31.4453C117.322 30.6621 116.887 29.3756 116.887 27.5859V22.6716H115.072V19.2197H116.887V15.9355H121.024V19.2197H123.733V22.6716H121.024V27.6577C121.024 28.1851 121.128 28.5527 121.338 28.7604C121.564 28.9681 121.935 29.072 122.451 29.072H123.758Z" fill="#FFFAF3"/>
<path d="M125.696 15.4563C125.696 14.833 125.922 14.3216 126.373 13.9222C126.825 13.5066 127.422 13.2988 128.164 13.2988C128.905 13.2988 129.502 13.5066 129.954 13.9222C130.405 14.3216 130.631 14.833 130.631 15.4563C130.631 16.0636 130.405 16.5749 129.954 16.9905C129.502 17.3901 128.905 17.5897 128.164 17.5897C127.422 17.5897 126.825 17.3901 126.373 16.9905C125.922 16.5749 125.696 16.0636 125.696 15.4563ZM130.22 19.2199V32.5962H126.083V19.2199H130.22Z" fill="#FFFAF3"/>
<path d="M139.391 19.0515C140.729 19.0515 141.923 19.3311 142.971 19.8904C144.036 20.4339 144.866 21.2249 145.463 22.2637C146.076 23.3025 146.383 24.5171 146.383 25.9074C146.383 27.2977 146.076 28.5123 145.463 29.5512C144.866 30.5899 144.036 31.3889 142.971 31.9483C141.923 32.4917 140.729 32.7634 139.391 32.7634C138.052 32.7634 136.85 32.4917 135.786 31.9483C134.721 31.3889 133.883 30.5899 133.27 29.5512C132.673 28.5123 132.374 27.2977 132.374 25.9074C132.374 24.5171 132.673 23.3025 133.27 22.2637C133.883 21.2249 134.721 20.4339 135.786 19.8904C136.85 19.3311 138.052 19.0515 139.391 19.0515ZM139.391 22.5994C138.6 22.5994 137.931 22.887 137.383 23.4624C136.85 24.0217 136.584 24.8367 136.584 25.9074C136.584 26.9782 136.85 27.7932 137.383 28.3526C137.931 28.9119 138.6 29.1915 139.391 29.1915C140.181 29.1915 140.842 28.9119 141.374 28.3526C141.907 27.7932 142.173 26.9782 142.173 25.9074C142.173 24.8367 141.907 24.0217 141.374 23.4624C140.842 22.887 140.181 22.5994 139.391 22.5994Z" fill="#FFFAF3"/>
<path d="M157.092 19.0757C158.64 19.0757 159.867 19.5872 160.77 20.6099C161.69 21.6326 162.149 23.0391 162.149 24.8289V32.5959H158.012V25.3084C158.012 24.4135 157.77 23.7183 157.286 23.2228C156.818 22.7114 156.19 22.4557 155.399 22.4557C154.561 22.4557 153.892 22.7195 153.391 23.2468C152.907 23.7742 152.665 24.5254 152.665 25.5001V32.5959H148.528V19.2196H152.665V21.6646C153.052 20.8656 153.624 20.2344 154.383 19.7709C155.157 19.3075 156.061 19.0757 157.092 19.0757Z" fill="#FFFAF3"/>
<path d="M170.006 19.0515C171.039 19.0515 171.925 19.2833 172.668 19.7467C173.409 20.2101 173.958 20.8414 174.313 21.6405V19.2193H178.425V32.5956H174.313V30.1745C173.958 30.9735 173.409 31.6047 172.668 32.0682C171.925 32.5316 171.039 32.7634 170.006 32.7634C168.893 32.7634 167.893 32.4917 167.006 31.9483C166.135 31.3889 165.442 30.5899 164.925 29.5512C164.425 28.5123 164.175 27.2977 164.175 25.9074C164.175 24.5011 164.425 23.2865 164.925 22.2637C165.442 21.2249 166.135 20.4339 167.006 19.8904C167.893 19.3311 168.893 19.0515 170.006 19.0515ZM171.337 22.6472C170.449 22.6472 169.731 22.9349 169.184 23.5103C168.651 24.0856 168.386 24.8847 168.386 25.9074C168.386 26.9303 168.651 27.7293 169.184 28.3046C169.731 28.8799 170.449 29.1676 171.337 29.1676C172.207 29.1676 172.917 28.872 173.466 28.2807C174.03 27.6894 174.313 26.8983 174.313 25.9074C174.313 24.9007 174.03 24.1096 173.466 23.5342C172.917 22.9429 172.207 22.6472 171.337 22.6472Z" fill="#FFFAF3"/>
<path d="M185.411 14.8564V32.5956H181.274V14.8564H185.411Z" fill="#FFFAF3"/>
<path d="M87.8347 43.1914C89.5605 43.1914 90.9878 43.6469 92.117 44.5578C93.2459 45.4528 93.9475 46.6753 94.2218 48.2255H91.2944C91.1331 47.3945 90.7379 46.7473 90.1089 46.2838C89.496 45.8044 88.7218 45.5647 87.7863 45.5647C86.7217 45.5647 85.8346 45.9402 85.1249 46.6913C84.4154 47.4265 84.0605 48.5132 84.0605 49.9515C84.0605 51.3898 84.4154 52.4845 85.1249 53.2356C85.8346 53.9868 86.7217 54.3623 87.7863 54.3623C88.7218 54.3623 89.496 54.1226 90.1089 53.6431C90.7379 53.1637 91.1331 52.5085 91.2944 51.6775H94.2218C93.9475 53.2277 93.2459 54.4583 92.117 55.3691C90.9878 56.28 89.5605 56.7355 87.8347 56.7355C86.5443 56.7355 85.3992 56.4638 84.3992 55.9205C83.4153 55.3771 82.6411 54.5941 82.0766 53.5712C81.512 52.5485 81.2298 51.3418 81.2298 49.9515C81.2298 48.5772 81.512 47.3785 82.0766 46.3557C82.6411 45.3329 83.4153 44.5499 84.3992 44.0064C85.3992 43.4631 86.5443 43.1914 87.8347 43.1914Z" fill="#FFFAF3"/>
<path d="M102.232 43.1914C103.442 43.1914 104.474 43.4871 105.329 44.0784C106.184 44.6698 106.789 45.4528 107.144 46.4277V43.3592H109.902V56.5677H107.144V53.4994C106.789 54.4741 106.184 55.2573 105.329 55.8486C104.474 56.4399 103.442 56.7355 102.232 56.7355C101.071 56.7355 100.031 56.4638 99.1115 55.9205C98.2083 55.3771 97.4986 54.5941 96.9825 53.5712C96.4663 52.5485 96.2082 51.3418 96.2082 49.9515C96.2082 48.5772 96.4663 47.3785 96.9825 46.3557C97.4986 45.3329 98.2083 44.5499 99.1115 44.0064C100.031 43.4631 101.071 43.1914 102.232 43.1914ZM103.079 45.5886C101.853 45.5886 100.869 45.9801 100.128 46.7632C99.4018 47.5304 99.0389 48.5931 99.0389 49.9515C99.0389 51.3098 99.4018 52.3807 100.128 53.1637C100.869 53.9308 101.853 54.3144 103.079 54.3144C103.853 54.3144 104.547 54.1386 105.16 53.787C105.773 53.4194 106.257 52.908 106.611 52.2528C106.966 51.5975 107.144 50.8305 107.144 49.9515C107.144 49.0885 106.966 48.3294 106.611 47.6741C106.257 47.003 105.773 46.4915 105.16 46.14C104.547 45.7724 103.853 45.5886 103.079 45.5886Z" fill="#FFFAF3"/>
<path d="M117.592 43.1914C119.156 43.1914 120.406 43.591 121.342 44.39C122.293 45.1731 122.874 46.2279 123.084 47.5543H120.471C120.358 46.8352 120.043 46.2599 119.527 45.8283C119.027 45.3809 118.358 45.1572 117.519 45.1572C116.826 45.1572 116.285 45.3249 115.898 45.6605C115.527 45.9801 115.342 46.4196 115.342 46.979C115.342 47.3945 115.479 47.7302 115.753 47.9858C116.027 48.2415 116.366 48.4413 116.769 48.5851C117.188 48.729 117.777 48.8887 118.535 49.0646C119.535 49.2883 120.342 49.5201 120.955 49.7598C121.584 49.9995 122.116 50.3831 122.551 50.9104C123.003 51.4218 123.229 52.125 123.229 53.0198C123.229 54.1226 122.801 55.0176 121.946 55.7047C121.108 56.3919 119.971 56.7355 118.535 56.7355C116.874 56.7355 115.527 56.3519 114.495 55.5849C113.479 54.8178 112.866 53.747 112.656 52.3726H115.342C115.422 53.0918 115.745 53.6751 116.309 54.1226C116.874 54.5701 117.616 54.7938 118.535 54.7938C119.196 54.7938 119.713 54.6259 120.084 54.2905C120.471 53.9388 120.664 53.4994 120.664 52.972C120.664 52.5085 120.519 52.1409 120.229 51.8692C119.938 51.5975 119.576 51.3898 119.14 51.246C118.705 51.0862 118.108 50.9264 117.35 50.7665C116.382 50.5428 115.592 50.3191 114.979 50.0954C114.382 49.8716 113.866 49.512 113.43 49.0166C113.011 48.5051 112.801 47.818 112.801 46.955C112.801 45.8364 113.221 44.9334 114.059 44.2463C114.914 43.543 116.092 43.1914 117.592 43.1914Z" fill="#FFFAF3"/>
<path d="M125.608 39.5236C125.608 39.0602 125.769 38.6766 126.091 38.373C126.414 38.0693 126.841 37.9175 127.374 37.9175C127.906 37.9175 128.333 38.0693 128.656 38.373C128.995 38.6766 129.164 39.0602 129.164 39.5236C129.164 39.9871 128.995 40.3627 128.656 40.6503C128.333 40.938 127.906 41.0819 127.374 41.0819C126.841 41.0819 126.414 40.938 126.091 40.6503C125.769 40.3627 125.608 39.9871 125.608 39.5236ZM128.753 43.3591V56.5676H125.995V43.3591H128.753Z" fill="#FFFAF3"/>
<path d="M139.541 43.1433C141.09 43.1433 142.332 43.6388 143.267 44.6296C144.203 45.6205 144.67 47.0349 144.67 48.8726V56.5676H141.912V49.1603C141.912 47.9776 141.606 47.0667 140.993 46.4276C140.38 45.7723 139.541 45.4447 138.477 45.4447C137.38 45.4447 136.501 45.7962 135.84 46.4994C135.179 47.1867 134.848 48.2015 134.848 49.5439V56.5676H132.09V43.3591H134.848V46.2598C135.203 45.2689 135.8 44.5018 136.638 43.9585C137.477 43.4151 138.445 43.1433 139.541 43.1433Z" fill="#FFFAF3"/>
<path d="M153.993 43.1914C155.283 43.1914 156.443 43.4631 157.477 44.0064C158.508 44.5499 159.315 45.3329 159.895 46.3557C160.476 47.3785 160.767 48.5772 160.767 49.9515C160.767 51.3418 160.476 52.5485 159.895 53.5712C159.315 54.5941 158.508 55.3771 157.477 55.9205C156.443 56.4638 155.283 56.7355 153.993 56.7355C152.703 56.7355 151.54 56.4638 150.509 55.9205C149.493 55.3771 148.686 54.5941 148.089 53.5712C147.509 52.5325 147.218 51.3258 147.218 49.9515C147.218 48.5772 147.509 47.3785 148.089 46.3557C148.686 45.3329 149.493 44.5499 150.509 44.0064C151.54 43.4631 152.703 43.1914 153.993 43.1914ZM153.993 45.5647C153.282 45.5647 152.629 45.7245 152.034 46.0441C151.436 46.3637 150.952 46.8591 150.581 47.5304C150.227 48.1856 150.049 48.9926 150.049 49.9515C150.049 50.9264 150.227 51.7414 150.581 52.3967C150.952 53.0518 151.436 53.5393 152.034 53.8589C152.629 54.1785 153.282 54.3383 153.993 54.3383C154.701 54.3383 155.356 54.1785 155.952 53.8589C156.549 53.5393 157.025 53.0518 157.38 52.3967C157.751 51.7414 157.936 50.9264 157.936 49.9515C157.936 48.9926 157.751 48.1856 157.38 47.5304C157.025 46.8591 156.549 46.3637 155.952 46.0441C155.356 45.7245 154.701 45.5647 153.993 45.5647Z" fill="#FFFAF3"/>
<path fill-rule="evenodd" clip-rule="evenodd" d="M38.6705 8.44848L56.463 18.5952C59.1658 20.1505 60.8925 23.113 60.8925 26.2978V46.4429C60.8925 49.6277 59.1658 52.5901 56.3881 54.1455L38.6705 64.2922C37.244 65.107 35.7426 65.4772 34.1661 65.4772C32.5895 65.4772 31.0129 65.107 29.6615 64.2922L11.944 54.2196C9.16629 52.5901 7.43958 49.7018 7.43958 46.517V26.2978C7.43958 23.113 9.16629 20.1505 11.944 18.5952L29.6615 8.44848C32.4394 6.89315 35.8928 6.89315 38.6705 8.44848ZM39.8756 50.0637H46.7034V22.0929H39.8756V39.4213L28.4559 22.0929H21.6281V50.0637H28.4559V32.8935L39.8756 50.0637Z" fill="#FEC882"/>
</svg>
