<svg width="266" height="105" viewBox="0 0 266 105" fill="none" xmlns="http://www.w3.org/2000/svg">
<path d="M47.4631 104.283C44.6584 104.283 41.9617 103.538 39.4807 102.155L7.98243 84.17C3.02037 81.4032 0 76.1887 0 70.5486V34.6857C0 29.0456 3.02037 23.8311 7.98243 21.0643L39.4807 3.07954C44.4427 0.31268 50.4835 0.31268 55.4455 3.07954L86.9438 21.0643C91.9057 23.8311 94.9261 29.0456 94.9261 34.6857V70.5486C94.9261 76.1887 91.9057 81.4032 86.9438 84.17L55.4455 102.155C52.9645 103.538 50.2678 104.283 47.4631 104.283ZM47.4631 2.7603C45.5215 2.7603 43.5797 3.29238 41.746 4.25015L7.87455 23.6182C4.4227 25.6401 2.15742 29.3647 2.15742 33.3021V71.9319C2.15742 75.9758 4.31483 79.5941 7.87455 81.6161L41.746 100.878C45.1978 102.899 49.6204 102.899 53.0722 100.878L86.9438 81.6161C90.3956 79.5941 92.6608 75.8694 92.6608 71.9319V33.3021C92.6608 29.2583 90.5035 25.6401 86.9438 23.6182L53.1802 4.25015C51.4543 3.29238 49.4047 2.7603 47.4631 2.7603Z" fill="#EDFE82"/>
<path d="M138.102 47.6397H132.157L122.216 32.691V47.6397H116.271V23.2878H122.216L132.157 38.3741V23.2878H138.102V47.6397Z" fill="#FFFAF3"/>
<path d="M149.576 28.179C151.06 28.179 152.334 28.512 153.4 29.1778C154.466 29.8436 155.254 30.7508 155.764 31.8989V28.4201H161.674V47.6398H155.764V44.161C155.254 45.3091 154.466 46.216 153.4 46.8821C152.334 47.5479 151.06 47.8809 149.576 47.8809C147.977 47.8809 146.54 47.4906 145.266 46.7097C144.014 45.906 143.018 44.7579 142.276 43.2654C141.558 41.7727 141.198 40.0275 141.198 38.0298C141.198 36.0092 141.558 34.264 142.276 32.7945C143.018 31.3018 144.014 30.1653 145.266 29.3844C146.54 28.5807 147.977 28.179 149.576 28.179ZM151.488 33.3454C150.214 33.3454 149.182 33.7587 148.394 34.5856C147.63 35.4122 147.247 36.5603 147.247 38.0298C147.247 39.4996 147.63 40.6476 148.394 41.4743C149.182 42.3009 150.214 42.7143 151.488 42.7143C152.74 42.7143 153.76 42.2896 154.547 41.4399C155.358 40.5903 155.764 39.4536 155.764 38.0298C155.764 36.5833 155.358 35.4466 154.547 34.62C153.76 33.7703 152.74 33.3454 151.488 33.3454Z" fill="#FFFAF3"/>
<path d="M176.751 42.5763V47.6397H174.075C171.803 47.6397 170.031 47.0885 168.756 45.9864C167.504 44.8611 166.879 43.0126 166.879 40.441V33.3799H164.271V28.42H166.879V23.7012H172.823V28.42H176.717V33.3799H172.823V40.5442C172.823 41.302 172.974 41.8302 173.275 42.1286C173.6 42.4271 174.133 42.5763 174.874 42.5763H176.751Z" fill="#FFFAF3"/>
<path d="M179.537 23.012C179.537 22.1165 179.862 21.3817 180.51 20.8078C181.159 20.2106 182.017 19.9121 183.083 19.9121C184.149 19.9121 185.006 20.2106 185.655 20.8078C186.304 21.3817 186.629 22.1165 186.629 23.012C186.629 23.8846 186.304 24.6194 185.655 25.2165C185.006 25.7906 184.149 26.0775 183.083 26.0775C182.017 26.0775 181.159 25.7906 180.51 25.2165C179.862 24.6194 179.537 23.8846 179.537 23.012ZM186.038 28.4198V47.6396H180.093V28.4198H186.038Z" fill="#FFFAF3"/>
<path d="M199.215 28.179C201.138 28.179 202.853 28.5807 204.359 29.3844C205.889 30.1653 207.082 31.3018 207.94 32.7945C208.821 34.2869 209.261 36.0321 209.261 38.0298C209.261 40.0275 208.821 41.7727 207.94 43.2654C207.082 44.7579 205.889 45.906 204.359 46.7097C202.853 47.4906 201.138 47.8809 199.215 47.8809C197.291 47.8809 195.564 47.4906 194.035 46.7097C192.505 45.906 191.3 44.7579 190.42 43.2654C189.562 41.7727 189.133 40.0275 189.133 38.0298C189.133 36.0321 189.562 34.2869 190.42 32.7945C191.3 31.3018 192.505 30.1653 194.035 29.3844C195.564 28.5807 197.291 28.179 199.215 28.179ZM199.215 33.2767C198.079 33.2767 197.117 33.69 196.329 34.5167C195.564 35.3204 195.182 36.4914 195.182 38.0298C195.182 39.5685 195.564 40.7395 196.329 41.5432C197.117 42.3469 198.079 42.7486 199.215 42.7486C200.35 42.7486 201.3 42.3469 202.065 41.5432C202.83 40.7395 203.212 39.5685 203.212 38.0298C203.212 36.4914 202.83 35.3204 202.065 34.5167C201.3 33.69 200.35 33.2767 199.215 33.2767Z" fill="#FFFAF3"/>
<path d="M224.649 28.2131C226.874 28.2131 228.637 28.9481 229.934 30.4176C231.256 31.8871 231.916 33.908 231.916 36.4796V47.6396H225.971V37.1687C225.971 35.8827 225.624 34.8839 224.928 34.1719C224.255 33.4371 223.353 33.0698 222.216 33.0698C221.012 33.0698 220.05 33.4487 219.331 34.2065C218.636 34.9642 218.288 36.0436 218.288 37.4441V47.6396H212.344V28.4199H218.288V31.9331C218.844 30.785 219.667 29.878 220.757 29.212C221.868 28.5462 223.167 28.2131 224.649 28.2131Z" fill="#FFFAF3"/>
<path d="M243.204 28.179C244.689 28.179 245.963 28.512 247.029 29.1778C248.094 29.8436 248.883 30.7508 249.393 31.8989V28.4201H255.302V47.6398H249.393V44.161C248.883 45.3091 248.094 46.216 247.029 46.8821C245.963 47.5479 244.689 47.8809 243.204 47.8809C241.606 47.8809 240.168 47.4906 238.894 46.7097C237.642 45.906 236.647 44.7579 235.904 43.2654C235.185 41.7727 234.827 40.0275 234.827 38.0298C234.827 36.0092 235.185 34.264 235.904 32.7945C236.647 31.3018 237.642 30.1653 238.894 29.3844C240.168 28.5807 241.606 28.179 243.204 28.179ZM245.117 33.3454C243.841 33.3454 242.81 33.7587 242.024 34.5856C241.258 35.4122 240.877 36.5603 240.877 38.0298C240.877 39.4996 241.258 40.6476 242.024 41.4743C242.81 42.3009 243.841 42.7143 245.117 42.7143C246.367 42.7143 247.388 42.2896 248.177 41.4399C248.986 40.5903 249.393 39.4536 249.393 38.0298C249.393 36.5833 248.986 35.4466 248.177 34.62C247.388 33.7703 246.367 33.3454 245.117 33.3454Z" fill="#FFFAF3"/>
<path d="M265.338 22.1511V47.6397H259.393V22.1511H265.338Z" fill="#FFFAF3"/>
<path d="M125.137 62.8638C127.616 62.8638 129.667 63.5182 131.29 64.8271C132.912 66.113 133.92 67.8696 134.314 70.0971H130.108C129.876 68.903 129.308 67.9731 128.404 67.3071C127.524 66.6183 126.411 66.2739 125.067 66.2739C123.537 66.2739 122.263 66.8134 121.243 67.8926C120.224 68.949 119.714 70.5104 119.714 72.577C119.714 74.6436 120.224 76.2166 121.243 77.2958C122.263 78.3752 123.537 78.9147 125.067 78.9147C126.411 78.9147 127.524 78.5703 128.404 77.8813C129.308 77.1925 129.876 76.251 130.108 75.057H134.314C133.92 77.2844 132.912 79.0526 131.29 80.3613C129.667 81.6702 127.616 82.3246 125.137 82.3246C123.283 82.3246 121.637 81.9343 120.2 81.1536C118.787 80.3729 117.674 79.2478 116.863 77.778C116.052 76.3085 115.646 74.5747 115.646 72.577C115.646 70.6023 116.052 68.8801 116.863 67.4103C117.674 65.9408 118.787 64.8157 120.2 64.0348C121.637 63.2541 123.283 62.8638 125.137 62.8638Z" fill="#FFFAF3"/>
<path d="M145.824 62.8638C147.562 62.8638 149.046 63.2887 150.274 64.1383C151.502 64.9879 152.371 66.113 152.881 67.5138V63.1049H156.844V82.0835H152.881V77.6748C152.371 79.0753 151.502 80.2007 150.274 81.0503C149.046 81.8999 147.562 82.3246 145.824 82.3246C144.156 82.3246 142.661 81.9343 141.34 81.1536C140.042 80.3729 139.023 79.2478 138.281 77.778C137.539 76.3085 137.168 74.5747 137.168 72.577C137.168 70.6023 137.539 68.8801 138.281 67.4103C139.023 65.9408 140.042 64.8157 141.34 64.0348C142.661 63.2541 144.156 62.8638 145.824 62.8638ZM147.041 66.3082C145.28 66.3082 143.866 66.8708 142.8 67.9959C141.757 69.0982 141.236 70.6253 141.236 72.577C141.236 74.5288 141.757 76.0674 142.8 77.1925C143.866 78.2946 145.28 78.8458 147.041 78.8458C148.153 78.8458 149.15 78.5933 150.031 78.0881C150.911 77.5599 151.607 76.8251 152.116 75.8836C152.626 74.9421 152.881 73.84 152.881 72.577C152.881 71.337 152.626 70.2463 152.116 69.3048C151.607 68.3405 150.911 67.6055 150.031 67.1005C149.15 66.5723 148.153 66.3082 147.041 66.3082Z" fill="#FFFAF3"/>
<path d="M167.892 62.8638C170.14 62.8638 171.936 63.4379 173.28 64.586C174.647 65.7111 175.482 67.2268 175.783 69.1326H172.029C171.866 68.0994 171.415 67.2727 170.673 66.6526C169.955 66.0098 168.993 65.6883 167.788 65.6883C166.791 65.6883 166.015 65.9292 165.459 66.4115C164.925 66.8708 164.659 67.5022 164.659 68.3059C164.659 68.903 164.856 69.3853 165.25 69.7527C165.644 70.12 166.131 70.4071 166.71 70.6137C167.312 70.8204 168.158 71.05 169.248 71.3027C170.685 71.6241 171.843 71.9571 172.724 72.3015C173.628 72.6459 174.393 73.1971 175.018 73.9548C175.667 74.6896 175.992 75.7 175.992 76.9857C175.992 78.5703 175.377 79.8563 174.149 80.8435C172.944 81.831 171.31 82.3246 169.248 82.3246C166.861 82.3246 164.925 81.7734 163.442 80.6713C161.982 79.5692 161.102 78.0305 160.8 76.0558H164.659C164.775 77.0892 165.238 77.9273 166.05 78.5703C166.861 79.2132 167.927 79.5346 169.248 79.5346C170.198 79.5346 170.939 79.2935 171.473 78.8115C172.029 78.3062 172.307 77.6748 172.307 76.917C172.307 76.251 172.098 75.7228 171.681 75.3324C171.264 74.9421 170.743 74.6436 170.117 74.4371C169.491 74.2073 168.633 73.9778 167.544 73.7481C166.154 73.4266 165.018 73.1052 164.138 72.7838C163.28 72.4621 162.539 71.9455 161.913 71.2338C161.31 70.4988 161.009 69.5115 161.009 68.2716C161.009 66.6642 161.611 65.3667 162.817 64.3794C164.045 63.369 165.737 62.8638 167.892 62.8638Z" fill="#FFFAF3"/>
<path d="M179.409 57.5936C179.409 56.9278 179.641 56.3766 180.105 55.9403C180.568 55.504 181.182 55.2859 181.947 55.2859C182.712 55.2859 183.326 55.504 183.789 55.9403C184.276 56.3766 184.519 56.9278 184.519 57.5936C184.519 58.2597 184.276 58.7993 183.789 59.2126C183.326 59.6259 182.712 59.8327 181.947 59.8327C181.182 59.8327 180.568 59.6259 180.105 59.2126C179.641 58.7993 179.409 58.2597 179.409 57.5936ZM183.928 63.1047V82.0833H179.965V63.1047H183.928Z" fill="#FFFAF3"/>
<path d="M199.432 62.7947C201.657 62.7947 203.441 63.5067 204.785 64.9302C206.129 66.354 206.801 68.3863 206.801 71.0268V82.0833H202.838V71.4401C202.838 69.7409 202.398 68.432 201.517 67.5137C200.637 66.5721 199.432 66.1015 197.902 66.1015C196.326 66.1015 195.063 66.6065 194.113 67.6169C193.163 68.6044 192.688 70.0625 192.688 71.9913V82.0833H188.725V63.1047H192.688V67.2725C193.198 65.8488 194.055 64.7466 195.26 63.9659C196.465 63.1852 197.856 62.7947 199.432 62.7947Z" fill="#FFFAF3"/>
<path d="M220.196 62.8638C222.049 62.8638 223.717 63.2541 225.202 64.0348C226.684 64.8157 227.844 65.9408 228.677 67.4103C229.512 68.8801 229.929 70.6023 229.929 72.577C229.929 74.5747 229.512 76.3085 228.677 77.778C227.844 79.2478 226.684 80.3729 225.202 81.1536C223.717 81.9343 222.049 82.3246 220.196 82.3246C218.342 82.3246 216.672 81.9343 215.19 81.1536C213.731 80.3729 212.571 79.2478 211.713 77.778C210.88 76.2856 210.462 74.5517 210.462 72.577C210.462 70.6023 210.88 68.8801 211.713 67.4103C212.571 65.9408 213.731 64.8157 215.19 64.0348C216.672 63.2541 218.342 62.8638 220.196 62.8638ZM220.196 66.2739C219.175 66.2739 218.237 66.5034 217.381 66.9627C216.523 67.4219 215.827 68.1337 215.293 69.0982C214.785 70.0397 214.53 71.1992 214.53 72.577C214.53 73.9778 214.785 75.1489 215.293 76.0904C215.827 77.0317 216.523 77.7321 217.381 78.1914C218.237 78.6506 219.175 78.8802 220.196 78.8802C221.214 78.8802 222.155 78.6506 223.011 78.1914C223.869 77.7321 224.552 77.0317 225.062 76.0904C225.596 75.1489 225.862 73.9778 225.862 72.577C225.862 71.1992 225.596 70.0397 225.062 69.0982C224.552 68.1337 223.869 67.4219 223.011 66.9627C222.155 66.5034 221.214 66.2739 220.196 66.2739Z" fill="#FFFAF3"/>
<path fill-rule="evenodd" clip-rule="evenodd" d="M54.4947 12.9434L80.0599 27.5227C83.9434 29.7575 86.4244 34.0141 86.4244 38.5902V67.5358C86.4244 72.1119 83.9434 76.3684 79.9522 78.6033L54.4947 93.1826C52.4451 94.3532 50.2878 94.8852 48.0225 94.8852C45.7572 94.8852 43.4919 94.3532 41.5501 93.1826L16.0927 78.7097C12.1015 76.3684 9.62048 72.2183 9.62048 67.6422V38.5902C9.62048 34.0141 12.1015 29.7575 16.0927 27.5227L41.5501 12.9434C45.5415 10.7086 50.5035 10.7086 54.4947 12.9434ZM56.2263 72.7383H66.0368V32.5484H56.2263V57.4467L39.8179 32.5484H30.0073V72.7383H39.8179V48.0673L56.2263 72.7383Z" fill="#EDFE82"/>
<path d="M47.4631 103.279C44.6584 103.279 41.9617 102.534 39.4807 101.15L7.98243 83.1656C3.02037 80.3988 0 75.1843 0 69.5442V33.6813C0 28.0412 3.02037 22.8267 7.98243 20.0599L39.4807 2.07514C44.4427 -0.691714 50.4835 -0.691714 55.4455 2.07514L86.9438 20.0599C91.9057 22.8267 94.9261 28.0412 94.9261 33.6813V69.5442C94.9261 75.1843 91.9057 80.3988 86.9438 83.1656L55.4455 101.15C52.9645 102.534 50.2678 103.279 47.4631 103.279ZM47.4631 1.75591C45.5215 1.75591 43.5797 2.28798 41.746 3.24575L7.87455 22.6138C4.4227 24.6357 2.15742 28.3603 2.15742 32.2977V70.9275C2.15742 74.9714 4.31483 78.5897 7.87455 80.6117L41.746 99.8731C45.1978 101.895 49.6204 101.895 53.0722 99.8731L86.9438 80.6117C90.3956 78.5897 92.6608 74.865 92.6608 70.9275V32.2977C92.6608 28.2539 90.5035 24.6357 86.9438 22.6138L53.1802 3.24575C51.4543 2.28798 49.4047 1.75591 47.4631 1.75591Z" fill="#EDFE82"/>
<path d="M138.102 46.6353H132.157L122.216 31.6866V46.6353H116.271V22.2834H122.216L132.157 37.3697V22.2834H138.102V46.6353Z" fill="#FFFAF3"/>
<path d="M149.576 27.1743C151.06 27.1743 152.334 27.5073 153.4 28.1732C154.466 28.839 155.254 29.7462 155.764 30.8942V27.4154H161.674V46.6352H155.764V43.1564C155.254 44.3044 154.466 45.2114 153.4 45.8774C152.334 46.5433 151.06 46.8763 149.576 46.8763C147.977 46.8763 146.54 46.4859 145.266 45.705C144.014 44.9013 143.018 43.7533 142.276 42.2608C141.558 40.7681 141.198 39.0229 141.198 37.0252C141.198 35.0045 141.558 33.2593 142.276 31.7898C143.018 30.2971 144.014 29.1606 145.266 28.3797C146.54 27.576 147.977 27.1743 149.576 27.1743ZM151.488 32.3408C150.214 32.3408 149.182 32.7541 148.394 33.581C147.63 34.4076 147.247 35.5557 147.247 37.0252C147.247 38.4949 147.63 39.643 148.394 40.4696C149.182 41.2963 150.214 41.7096 151.488 41.7096C152.74 41.7096 153.76 41.2849 154.547 40.4353C155.358 39.5857 155.764 38.449 155.764 37.0252C155.764 35.5787 155.358 34.442 154.547 33.6153C153.76 32.7657 152.74 32.3408 151.488 32.3408Z" fill="#FFFAF3"/>
<path d="M176.751 41.5721V46.6355H174.075C171.803 46.6355 170.031 46.0844 168.756 44.9822C167.504 43.8569 166.879 42.0084 166.879 39.4368V32.3757H164.271V27.4158H166.879V22.697H172.823V27.4158H176.717V32.3757H172.823V39.5401C172.823 40.2978 172.974 40.826 173.275 41.1245C173.6 41.4229 174.133 41.5721 174.874 41.5721H176.751Z" fill="#FFFAF3"/>
<path d="M179.537 22.0079C179.537 21.1123 179.862 20.3776 180.51 19.8036C181.159 19.2065 182.017 18.908 183.083 18.908C184.149 18.908 185.006 19.2065 185.655 19.8036C186.304 20.3776 186.629 21.1123 186.629 22.0079C186.629 22.8805 186.304 23.6152 185.655 24.2123C185.006 24.7865 184.149 25.0734 183.083 25.0734C182.017 25.0734 181.159 24.7865 180.51 24.2123C179.862 23.6152 179.537 22.8805 179.537 22.0079ZM186.038 27.4157V46.6354H180.093V27.4157H186.038Z" fill="#FFFAF3"/>
<path d="M199.215 27.1743C201.138 27.1743 202.853 27.576 204.359 28.3797C205.889 29.1606 207.082 30.2971 207.94 31.7898C208.821 33.2823 209.261 35.0275 209.261 37.0252C209.261 39.0229 208.821 40.7681 207.94 42.2608C207.082 43.7533 205.889 44.9013 204.359 45.705C202.853 46.4859 201.138 46.8763 199.215 46.8763C197.291 46.8763 195.564 46.4859 194.035 45.705C192.505 44.9013 191.3 43.7533 190.42 42.2608C189.562 40.7681 189.133 39.0229 189.133 37.0252C189.133 35.0275 189.562 33.2823 190.42 31.7898C191.3 30.2971 192.505 29.1606 194.035 28.3797C195.564 27.576 197.291 27.1743 199.215 27.1743ZM199.215 32.2721C198.079 32.2721 197.117 32.6854 196.329 33.512C195.564 34.3157 195.182 35.4868 195.182 37.0252C195.182 38.5638 195.564 39.7349 196.329 40.5386C197.117 41.3422 198.079 41.744 199.215 41.744C200.35 41.744 201.3 41.3422 202.065 40.5386C202.83 39.7349 203.212 38.5638 203.212 37.0252C203.212 35.4868 202.83 34.3157 202.065 33.512C201.3 32.6854 200.35 32.2721 199.215 32.2721Z" fill="#FFFAF3"/>
<path d="M224.649 27.2087C226.874 27.2087 228.637 27.9437 229.934 29.4132C231.256 30.8827 231.916 32.9036 231.916 35.4752V46.6352H225.971V36.1643C225.971 34.8783 225.624 33.8795 224.928 33.1675C224.255 32.4327 223.353 32.0654 222.216 32.0654C221.012 32.0654 220.05 32.4443 219.331 33.2021C218.636 33.9598 218.288 35.0392 218.288 36.4397V46.6352H212.344V27.4155H218.288V30.9287C218.844 29.7806 219.667 28.8736 220.757 28.2076C221.868 27.5418 223.167 27.2087 224.649 27.2087Z" fill="#FFFAF3"/>
<path d="M243.204 27.1743C244.689 27.1743 245.963 27.5073 247.029 28.1732C248.094 28.839 248.883 29.7462 249.393 30.8942V27.4154H255.302V46.6352H249.393V43.1564C248.883 44.3044 248.094 45.2114 247.029 45.8774C245.963 46.5433 244.689 46.8763 243.204 46.8763C241.606 46.8763 240.168 46.4859 238.894 45.705C237.642 44.9013 236.647 43.7533 235.904 42.2608C235.185 40.7681 234.827 39.0229 234.827 37.0252C234.827 35.0045 235.185 33.2593 235.904 31.7898C236.647 30.2971 237.642 29.1606 238.894 28.3797C240.168 27.576 241.606 27.1743 243.204 27.1743ZM245.117 32.3408C243.841 32.3408 242.81 32.7541 242.024 33.581C241.258 34.4076 240.877 35.5557 240.877 37.0252C240.877 38.4949 241.258 39.643 242.024 40.4696C242.81 41.2963 243.841 41.7096 245.117 41.7096C246.367 41.7096 247.388 41.2849 248.177 40.4353C248.986 39.5857 249.393 38.449 249.393 37.0252C249.393 35.5787 248.986 34.442 248.177 33.6153C247.388 32.7657 246.367 32.3408 245.117 32.3408Z" fill="#FFFAF3"/>
<path d="M265.338 21.1467V46.6353H259.393V21.1467H265.338Z" fill="#FFFAF3"/>
<path d="M125.137 61.8594C127.616 61.8594 129.667 62.5138 131.29 63.8227C132.912 65.1086 133.92 66.8652 134.314 69.0927H130.108C129.876 67.8986 129.308 66.9687 128.404 66.3027C127.524 65.6139 126.411 65.2695 125.067 65.2695C123.537 65.2695 122.263 65.809 121.243 66.8882C120.224 67.9446 119.714 69.506 119.714 71.5726C119.714 73.6392 120.224 75.2122 121.243 76.2914C122.263 77.3708 123.537 77.9103 125.067 77.9103C126.411 77.9103 127.524 77.5659 128.404 76.8769C129.308 76.1881 129.876 75.2466 130.108 74.0526H134.314C133.92 76.28 132.912 78.0482 131.29 79.3569C129.667 80.6658 127.616 81.3202 125.137 81.3202C123.283 81.3202 121.637 80.9299 120.2 80.1492C118.787 79.3685 117.674 78.2434 116.863 76.7736C116.052 75.3041 115.646 73.5703 115.646 71.5726C115.646 69.5979 116.052 67.8757 116.863 66.406C117.674 64.9364 118.787 63.8113 120.2 63.0304C121.637 62.2497 123.283 61.8594 125.137 61.8594Z" fill="#FFFAF3"/>
<path d="M145.824 61.8594C147.562 61.8594 149.046 62.2843 150.274 63.1339C151.502 63.9835 152.371 65.1086 152.881 66.5094V62.1005H156.844V81.0791H152.881V76.6704C152.371 78.071 151.502 79.1963 150.274 80.0459C149.046 80.8955 147.562 81.3202 145.824 81.3202C144.156 81.3202 142.661 80.9299 141.34 80.1492C140.042 79.3685 139.023 78.2434 138.281 76.7736C137.539 75.3041 137.168 73.5703 137.168 71.5726C137.168 69.5979 137.539 67.8757 138.281 66.406C139.023 64.9364 140.042 63.8113 141.34 63.0304C142.661 62.2497 144.156 61.8594 145.824 61.8594ZM147.041 65.3038C145.28 65.3038 143.866 65.8664 142.8 66.9915C141.757 68.0938 141.236 69.6209 141.236 71.5726C141.236 73.5244 141.757 75.063 142.8 76.1881C143.866 77.2902 145.28 77.8414 147.041 77.8414C148.153 77.8414 149.15 77.5889 150.031 77.0837C150.911 76.5555 151.607 75.8207 152.116 74.8792C152.626 73.9377 152.881 72.8356 152.881 71.5726C152.881 70.3326 152.626 69.2419 152.116 68.3004C151.607 67.3361 150.911 66.6011 150.031 66.0961C149.15 65.5679 148.153 65.3038 147.041 65.3038Z" fill="#FFFAF3"/>
<path d="M167.892 61.8594C170.14 61.8594 171.936 62.4335 173.28 63.5816C174.647 64.7067 175.482 66.2224 175.783 68.1282H172.029C171.866 67.095 171.415 66.2683 170.673 65.6482C169.955 65.0054 168.993 64.6839 167.788 64.6839C166.791 64.6839 166.015 64.9249 165.459 65.4071C164.925 65.8664 164.659 66.4979 164.659 67.3015C164.659 67.8986 164.856 68.3809 165.25 68.7483C165.644 69.1156 166.131 69.4027 166.71 69.6093C167.312 69.816 168.158 70.0456 169.248 70.2983C170.685 70.6197 171.843 70.9527 172.724 71.2971C173.628 71.6415 174.393 72.1927 175.018 72.9504C175.667 73.6852 175.992 74.6956 175.992 75.9814C175.992 77.5659 175.377 78.8519 174.149 79.8391C172.944 80.8266 171.31 81.3202 169.248 81.3202C166.861 81.3202 164.925 80.7691 163.442 79.6669C161.982 78.5648 161.102 77.0262 160.8 75.0514H164.659C164.775 76.0848 165.238 76.9229 166.05 77.5659C166.861 78.2088 167.927 78.5302 169.248 78.5302C170.198 78.5302 170.939 78.2891 171.473 77.8071C172.029 77.3018 172.307 76.6704 172.307 75.9126C172.307 75.2466 172.098 74.7184 171.681 74.3281C171.264 73.9377 170.743 73.6393 170.117 73.4327C169.491 73.203 168.633 72.9734 167.544 72.7437C166.154 72.4222 165.018 72.1008 164.138 71.7794C163.28 71.4578 162.539 70.9411 161.913 70.2294C161.31 69.4944 161.009 68.5071 161.009 67.2672C161.009 65.6598 161.611 64.3623 162.817 63.375C164.045 62.3646 165.737 61.8594 167.892 61.8594Z" fill="#FFFAF3"/>
<path d="M179.409 56.5892C179.409 55.9234 179.641 55.3722 180.105 54.9359C180.568 54.4996 181.182 54.2815 181.947 54.2815C182.712 54.2815 183.326 54.4996 183.789 54.9359C184.276 55.3722 184.519 55.9234 184.519 56.5892C184.519 57.2553 184.276 57.7949 183.789 58.2082C183.326 58.6215 182.712 58.8283 181.947 58.8283C181.182 58.8283 180.568 58.6215 180.105 58.2082C179.641 57.7949 179.409 57.2553 179.409 56.5892ZM183.928 62.1003V81.0789H179.965V62.1003H183.928Z" fill="#FFFAF3"/>
<path d="M199.432 61.7905C201.657 61.7905 203.441 62.5025 204.785 63.9261C206.129 65.3498 206.801 67.3821 206.801 70.0227V81.0792H202.838V70.436C202.838 68.7367 202.398 67.4279 201.517 66.5095C200.637 65.568 199.432 65.0973 197.902 65.0973C196.326 65.0973 195.063 65.6023 194.113 66.6128C193.163 67.6003 192.688 69.0584 192.688 70.9872V81.0792H188.725V62.1006H192.688V66.2684C193.198 64.8446 194.055 63.7425 195.26 62.9618C196.465 62.1811 197.856 61.7905 199.432 61.7905Z" fill="#FFFAF3"/>
<path d="M220.196 61.8596C222.049 61.8596 223.717 62.25 225.202 63.0307C226.684 63.8116 227.844 64.9367 228.677 66.4062C229.512 67.8759 229.929 69.5981 229.929 71.5729C229.929 73.5706 229.512 75.3044 228.677 76.7739C227.844 78.2436 226.684 79.3687 225.202 80.1494C223.717 80.9301 222.049 81.3205 220.196 81.3205C218.342 81.3205 216.672 80.9301 215.19 80.1494C213.731 79.3687 212.571 78.2436 211.713 76.7739C210.88 75.2814 210.462 73.5476 210.462 71.5729C210.462 69.5981 210.88 67.8759 211.713 66.4062C212.571 64.9367 213.731 63.8116 215.19 63.0307C216.672 62.25 218.342 61.8596 220.196 61.8596ZM220.196 65.2697C219.175 65.2697 218.237 65.4992 217.381 65.9585C216.523 66.4178 215.827 67.1296 215.293 68.0941C214.785 69.0356 214.53 70.195 214.53 71.5729C214.53 72.9737 214.785 74.1447 215.293 75.0862C215.827 76.0275 216.523 76.7279 217.381 77.1872C218.237 77.6465 219.175 77.876 220.196 77.876C221.214 77.876 222.155 77.6465 223.011 77.1872C223.869 76.7279 224.552 76.0275 225.062 75.0862C225.596 74.1447 225.862 72.9737 225.862 71.5729C225.862 70.195 225.596 69.0356 225.062 68.0941C224.552 67.1296 223.869 66.4178 223.011 65.9585C222.155 65.4992 221.214 65.2697 220.196 65.2697Z" fill="#FFFAF3"/>
<path fill-rule="evenodd" clip-rule="evenodd" d="M54.4947 11.9393L80.0599 26.5186C83.9434 28.7534 86.4244 33.0099 86.4244 37.586V66.5316C86.4244 71.1077 83.9434 75.3643 79.9522 77.5991L54.4947 92.1785C52.4451 93.3491 50.2878 93.8811 48.0225 93.8811C45.7572 93.8811 43.4919 93.3491 41.5501 92.1785L16.0927 77.7055C12.1015 75.3643 9.62048 71.2142 9.62048 66.6381V37.586C9.62048 33.0099 12.1015 28.7534 16.0927 26.5186L41.5501 11.9393C45.5415 9.70449 50.5035 9.70449 54.4947 11.9393ZM56.2263 71.7341H66.0368V31.5442H56.2263V56.4426L39.8179 31.5442H30.0073V71.7341H39.8179V47.0632L56.2263 71.7341Z" fill="#EDFE82"/>
</svg>
