<svg width="40" height="37" viewBox="0 0 40 37" fill="none" xmlns="http://www.w3.org/2000/svg">
<path d="M19.1289 0.545605C19.5114 -0.13304 20.4886 -0.13304 20.8712 0.545604L26.4408 10.4271C26.5835 10.6802 26.8292 10.8588 27.1141 10.9163L38.2331 13.1598C38.9967 13.3138 39.2987 14.2433 38.7715 14.8168L31.0947 23.1673C30.898 23.3813 30.8042 23.6702 30.8375 23.9589L32.1398 35.2269C32.2292 36.0008 31.4386 36.5752 30.7303 36.251L20.4162 31.5305C20.1519 31.4096 19.8481 31.4096 19.5838 31.5305L9.26976 36.251C8.5614 36.5752 7.77077 36.0008 7.86021 35.2269L9.16248 23.9589C9.19585 23.6702 9.10197 23.3813 8.90528 23.1673L1.22855 14.8168C0.701322 14.2433 1.00332 13.3138 1.76695 13.1598L12.8859 10.9163C13.1708 10.8588 13.4165 10.6802 13.5592 10.4271L19.1289 0.545605Z" fill="#FCFF6F"/>
</svg>
