<svg width="119" height="31" viewBox="0 0 119 31" fill="none" xmlns="http://www.w3.org/2000/svg">
<g filter="url(#filter0_d_2_597)">
<path d="M14.4712 7.69281C14.8454 6.97776 15.8689 6.97776 16.2431 7.69281L17.7929 10.654C17.9303 10.9165 18.1771 11.1045 18.4666 11.1674L21.6716 11.8639C22.4105 12.0244 22.7108 12.9153 22.2199 13.4903L19.9288 16.1742C19.7503 16.3833 19.6657 16.6567 19.6951 16.9301L20.0754 20.4739C20.1595 21.2577 19.346 21.8261 18.639 21.4776L15.7992 20.0779C15.5205 19.9405 15.1938 19.9405 14.915 20.0779L12.0753 21.4776C11.3682 21.8261 10.5548 21.2577 10.6389 20.4739L11.0192 16.9301C11.0485 16.6567 10.964 16.3833 10.7855 16.1742L8.49442 13.4903C8.00351 12.9153 8.30379 12.0244 9.04265 11.8639L12.2477 11.1674C12.5372 11.1045 12.784 10.9165 12.9213 10.654L14.4712 7.69281Z" fill="#FCFF6F"/>
<path d="M35.8437 7.54558C36.2262 6.86693 37.2035 6.86693 37.586 7.54557L39.3468 10.6695C39.4895 10.9226 39.7352 11.1012 40.0201 11.1587L43.5352 11.8679C44.2989 12.022 44.6009 12.9515 44.0736 13.525L41.6467 16.1649C41.45 16.3788 41.3562 16.6678 41.3895 16.9565L41.8012 20.5187C41.8907 21.2926 41.1 21.867 40.3917 21.5428L37.131 20.0505C36.8667 19.9295 36.5629 19.9295 36.2987 20.0505L33.038 21.5428C32.3297 21.867 31.539 21.2926 31.6285 20.5187L32.0402 16.9565C32.0735 16.6678 31.9796 16.3788 31.783 16.1649L29.3561 13.525C28.8288 12.9515 29.1308 12.022 29.8945 11.8679L33.4096 11.1587C33.6945 11.1012 33.9402 10.9226 34.0829 10.6695L35.8437 7.54558Z" fill="#FCFF6F"/>
<path d="M57.8437 7.54558C58.2262 6.86693 59.2035 6.86693 59.586 7.54557L61.3468 10.6695C61.4895 10.9226 61.7352 11.1012 62.0201 11.1587L65.5352 11.8679C66.2989 12.022 66.6009 12.9515 66.0736 13.525L63.6467 16.1649C63.45 16.3788 63.3562 16.6678 63.3895 16.9565L63.8012 20.5187C63.8907 21.2926 63.1 21.867 62.3917 21.5428L59.131 20.0505C58.8667 19.9295 58.5629 19.9295 58.2987 20.0505L55.038 21.5428C54.3297 21.867 53.539 21.2926 53.6285 20.5187L54.0402 16.9565C54.0735 16.6678 53.9796 16.3788 53.783 16.1649L51.3561 13.525C50.8288 12.9515 51.1308 12.022 51.8945 11.8679L55.4096 11.1587C55.6945 11.1012 55.9402 10.9226 56.0829 10.6695L57.8437 7.54558Z" fill="#FCFF6F"/>
<path d="M79.8437 7.54558C80.2262 6.86693 81.2035 6.86693 81.586 7.54557L83.3468 10.6695C83.4895 10.9226 83.7352 11.1012 84.0201 11.1587L87.5352 11.8679C88.2989 12.022 88.6009 12.9515 88.0736 13.525L85.6467 16.1649C85.45 16.3788 85.3562 16.6678 85.3895 16.9565L85.8012 20.5187C85.8907 21.2926 85.1 21.867 84.3917 21.5428L81.131 20.0505C80.8667 19.9295 80.5629 19.9295 80.2987 20.0505L77.038 21.5428C76.3297 21.867 75.539 21.2926 75.6285 20.5187L76.0402 16.9565C76.0735 16.6678 75.9796 16.3788 75.783 16.1649L73.3561 13.525C72.8288 12.9515 73.1308 12.022 73.8945 11.8679L77.4096 11.1587C77.6945 11.1012 77.9402 10.9226 78.0829 10.6695L79.8437 7.54558Z" fill="#FCFF6F"/>
<path d="M101.844 7.54558C102.226 6.86693 103.203 6.86693 103.586 7.54557L105.347 10.6695C105.489 10.9226 105.735 11.1012 106.02 11.1587L109.535 11.8679C110.299 12.022 110.601 12.9515 110.074 13.525L107.647 16.1649C107.45 16.3788 107.356 16.6678 107.39 16.9565L107.801 20.5187C107.891 21.2926 107.1 21.867 106.392 21.5428L103.131 20.0505C102.867 19.9295 102.563 19.9295 102.299 20.0505L99.038 21.5428C98.3297 21.867 97.539 21.2926 97.6285 20.5187L98.0402 16.9565C98.0735 16.6678 97.9796 16.3788 97.783 16.1649L95.3561 13.525C94.8288 12.9515 95.1308 12.022 95.8945 11.8679L99.4096 11.1587C99.6945 11.1012 99.9402 10.9226 100.083 10.6695L101.844 7.54558Z" fill="#FCFF6F"/>
</g>
<defs>
<filter id="filter0_d_2_597" x="0.254174" y="0.0366211" width="118.084" height="30.5986" filterUnits="userSpaceOnUse" color-interpolation-filters="sRGB">
<feFlood flood-opacity="0" result="BackgroundImageFix"/>
<feColorMatrix in="SourceAlpha" type="matrix" values="0 0 0 0 0 0 0 0 0 0 0 0 0 0 0 0 0 0 127 0" result="hardAlpha"/>
<feOffset dy="1"/>
<feGaussianBlur stdDeviation="4"/>
<feComposite in2="hardAlpha" operator="out"/>
<feColorMatrix type="matrix" values="0 0 0 0 0 0 0 0 0 0 0 0 0 0 0 0 0 0 0.54 0"/>
<feBlend mode="normal" in2="BackgroundImageFix" result="effect1_dropShadow_2_597"/>
<feBlend mode="normal" in="SourceGraphic" in2="effect1_dropShadow_2_597" result="shape"/>
</filter>
</defs>
</svg>
